<?xml version="1.0" encoding="UTF-8" ?>
<!DOCTYPE svg PUBLIC "-//W3C//DTD SVG 1.1//EN" "http://www.w3.org/Graphics/SVG/1.1/DTD/svg11.dtd">
<svg width="1000pt" height="1000pt" viewBox="0 0 1000 1000" version="1.1" xmlns="http://www.w3.org/2000/svg">
<path fill="#fdfdfd" d=" M 0.00 0.00 L 1000.00 0.00 L 1000.00 1000.00 L 0.00 1000.00 L 0.00 0.00 Z" />
<path fill="#050505" d=" M 471.52 18.84 C 562.38 13.32 654.72 34.14 734.16 78.64 C 795.76 112.86 849.64 160.82 890.88 217.95 C 929.49 271.28 957.01 332.63 970.94 396.99 C 993.30 499.07 981.59 608.42 937.21 703.11 C 906.05 770.29 859.04 829.98 801.26 876.28 C 740.05 925.39 666.69 959.35 589.50 973.68 C 531.03 984.70 470.52 984.78 412.01 973.97 C 348.41 962.30 287.27 937.49 233.46 901.63 C 172.59 861.24 121.09 806.82 84.14 743.79 C 39.94 668.96 17.00 581.90 18.02 495.03 C 18.74 415.17 39.63 335.54 78.64 265.83 C 116.37 197.91 170.84 139.37 235.84 96.80 C 305.74 50.72 387.93 23.56 471.52 18.84 Z" />
<path fill="#fdfdfd" d=" M 486.15 48.23 C 534.68 46.75 583.49 52.97 629.99 66.98 C 703.78 89.02 771.64 130.44 825.03 185.94 C 875.12 237.50 912.45 301.28 933.08 370.12 C 951.47 431.39 956.41 496.57 948.07 559.96 C 937.04 644.13 901.45 724.89 846.83 789.85 C 822.70 818.69 794.97 844.50 764.54 866.59 C 728.96 892.31 689.59 912.75 648.13 927.17 C 591.81 946.77 531.56 954.81 472.07 951.12 C 405.84 947.28 340.59 928.29 282.48 896.32 C 216.55 860.17 160.02 807.17 119.38 743.94 C 97.89 710.45 80.88 674.11 68.86 636.18 C 53.76 588.39 46.82 538.07 48.16 487.98 C 49.91 415.40 69.60 343.36 105.06 280.01 C 142.26 213.16 196.82 156.10 261.81 115.77 C 328.90 73.99 407.14 50.39 486.15 48.23 Z" />
<path fill="#050505" d=" M 222.40 203.15 C 249.59 202.80 276.81 203.10 304.01 203.00 C 314.60 203.09 325.20 202.82 335.79 203.14 C 371.72 285.75 408.10 368.18 444.20 450.73 C 462.88 493.52 481.84 536.19 500.33 579.05 C 500.60 578.69 501.13 577.97 501.40 577.61 C 555.30 452.74 609.19 327.87 663.08 203.00 C 701.66 203.04 740.23 202.93 778.81 203.05 C 778.74 401.35 778.73 599.65 778.81 797.95 C 751.87 798.07 724.94 797.96 698.00 798.00 C 698.00 653.00 698.00 507.99 698.00 362.99 C 697.81 344.02 698.38 325.02 697.70 306.07 C 692.78 318.50 686.92 330.54 681.63 342.82 C 634.05 449.80 586.51 556.80 538.92 663.77 C 512.27 663.79 485.63 663.73 458.99 663.80 C 407.71 549.44 356.69 434.97 305.50 320.57 C 303.45 315.73 300.96 311.06 299.32 306.05 C 298.83 309.68 299.03 313.35 299.00 317.00 C 299.00 477.33 299.00 637.67 299.00 798.00 C 273.46 797.87 247.90 798.26 222.38 797.80 C 222.64 695.88 222.42 593.95 222.49 492.03 C 222.43 395.74 222.62 299.44 222.40 203.15 Z" />
</svg>
